<svg width="165" height="32" viewBox="0 0 165 32" fill="none" xmlns="http://www.w3.org/2000/svg">
<path fill-rule="evenodd" clip-rule="evenodd" d="M164.742 25.6393H107.042L96.4492 17.081L116.04 0.0390072H164.742V25.6393Z" fill="white"/>
<path fill-rule="evenodd" clip-rule="evenodd" d="M162.846 23.7429V1.93599H116.75L99.4006 17.0273L107.713 23.7429H162.846Z" fill="#1B1B1B"/>
<path fill-rule="evenodd" clip-rule="evenodd" d="M94.3687 6.43976L88.9616 11.0741L93.927 15.0469L103.968 6.43976H94.3687ZM62.3687 6.43976L76.4484 21.7998L82.0098 17.0327L60.7686 0.0395432H70.3684L86.6442 13.0605L91.6101 17.0327L102.368 25.6399H92.7686L86.9752 21.0055L81.5682 25.6399H79.9687H71.9684H70.3684L65.9686 20.8397H53.3681L57.5685 16.0401H61.5684L57.6801 11.798L39.9684 32.0401H30.3681L35.968 25.6399H35.1683H28.7681H27.168L22.3684 14.1198L17.5682 25.6399H15.9682H9.56795H7.9679L-0.0318289 6.43976H7.9679L12.7681 17.9598L17.5682 6.43976H19.1683H25.5685H27.168L31.9682 17.9598L36.7683 6.43976H44.7681L37.4955 23.8946L52.7683 6.43976H62.3687Z" fill="white"/>
<path d="M120.2 17.0051H125.104V19.4293H117.666V6.57306H120.2V17.0051ZM133.222 10.2462H135.591V19.4293H133.222V18.3456C132.511 19.2397 131.514 19.6867 130.228 19.6867C129.004 19.6867 127.954 19.218 127.078 18.2817C126.203 17.3448 125.765 16.1967 125.765 14.8377C125.765 13.4788 126.203 12.3306 127.078 11.3943C127.954 10.4575 129.004 9.98936 130.228 9.98936C131.514 9.98936 132.511 10.4364 133.222 11.3299V10.2462ZM128.851 16.7022C129.328 17.1855 129.934 17.4272 130.669 17.4272C131.403 17.4272 132.013 17.1855 132.496 16.7022C132.98 16.2184 133.222 15.5969 133.222 14.8377C133.222 14.0786 132.98 13.4571 132.496 12.9738C132.013 12.49 131.403 12.2483 130.669 12.2483C129.934 12.2483 129.328 12.49 128.851 12.9738C128.373 13.4571 128.134 14.0786 128.134 14.8377C128.134 15.5969 128.373 16.2184 128.851 16.7022ZM143.084 9.98936C144.321 9.98936 145.377 10.4575 146.252 11.3943C147.128 12.3306 147.565 13.4788 147.565 14.8377C147.565 16.1967 147.128 17.3448 146.252 18.2817C145.377 19.218 144.321 19.6867 143.084 19.6867C141.799 19.6867 140.807 19.2397 140.109 18.3456V19.4293H137.74V6.57306H140.109V11.3299C140.807 10.4364 141.799 9.98936 143.084 9.98936ZM140.825 16.7022C141.303 17.1855 141.909 17.4272 142.643 17.4272C143.378 17.4272 143.987 17.1855 144.471 16.7022C144.954 16.2184 145.196 15.5969 145.196 14.8377C145.196 14.0786 144.954 13.4571 144.471 12.9738C143.987 12.49 143.378 12.2483 142.643 12.2483C141.909 12.2483 141.303 12.49 140.825 12.9738C140.347 13.4571 140.109 14.0786 140.109 14.8377C140.109 15.5969 140.347 16.2184 140.825 16.7022ZM151.22 12.8541C151.22 13.099 151.383 13.2984 151.707 13.4512C152.031 13.6045 152.426 13.7389 152.892 13.8554C153.357 13.9713 153.822 14.1187 154.287 14.2959C154.753 14.4736 155.147 14.7706 155.472 15.1867C155.796 15.6028 155.958 16.1235 155.958 16.7477C155.958 17.6905 155.607 18.4161 154.902 18.9243C154.199 19.4325 153.32 19.6867 152.267 19.6867C150.382 19.6867 149.096 18.9579 148.411 17.5009L150.467 16.3441C150.737 17.1395 151.337 17.5377 152.267 17.5377C153.112 17.5377 153.534 17.2744 153.534 16.7477C153.534 16.5028 153.372 16.304 153.048 16.1512C152.723 15.9978 152.328 15.8602 151.863 15.7377C151.398 15.6153 150.932 15.4625 150.467 15.2788C150.002 15.0951 149.607 14.8041 149.282 14.4064C148.958 14.0082 148.796 13.5092 148.796 12.9093C148.796 12.0034 149.13 11.2903 149.797 10.7696C150.464 10.2494 151.294 9.98936 152.285 9.98936C153.033 9.98936 153.712 10.1573 154.324 10.4944C154.937 10.8308 155.42 11.3114 155.775 11.9362L153.755 13.0378C153.461 12.4136 152.971 12.1015 152.285 12.1015C151.979 12.1015 151.726 12.1686 151.523 12.3036C151.321 12.4379 151.22 12.6216 151.22 12.8541Z" fill="white"/>
<path fill-rule="evenodd" clip-rule="evenodd" d="M94.3582 6.44791L88.9512 11.0823L93.9166 15.055L103.958 6.44791H94.3582Z" fill="#F78E1E"/>
</svg>
